<svg xmlns="http://www.w3.org/2000/svg" width="353" height="78" xmlns:v="https://vecta.io/nano"><path d="M0 14.727v14.726L8 21.5l8-7.953V6.773 0H8 0v14.727m15.5 8.114L.5 36.612.229 56.806-.041 77h8.52H17V61.081 45.162l7.164-6.538 7.163-6.538 5.837 5.056L43 42.198v17.401V77h9 9V55.696 34.393L46.482 21.946c-7.985-6.845-14.848-12.543-15.25-12.661S23.75 15.268 15.5 22.841m77.451-1.53c-12.045 3.384-19.435 12.354-20.618 25.025-1.197 12.822 4.205 23.278 14.748 28.547C92.191 77.436 94.524 78 99.982 78c17.894 0 29.335-11.271 29.445-29.006.1-16.068-9.798-26.893-25.97-28.405-3.549-.331-7.796-.04-10.506.722m126.138-.268c-12.402 2.551-18.99 14.872-12.836 24.005 2.982 4.425 6.73 6.488 17.388 9.572C233.369 57.436 235 58.359 235 61.051c0 3.073-2.84 4.949-7.49 4.949-5.772 0-7.301-.694-9.073-4.121-1.428-2.762-1.777-2.879-8.594-2.879h-7.105l.57 3.51c1.381 8.512 9.692 14.536 21.048 15.258 8.484.539 14.42-.867 18.634-4.413 4.119-3.466 6.01-7.379 6.01-12.437 0-8.323-5.322-13.06-18.899-16.823-11.384-3.154-13.823-5.358-10.682-9.654 1.056-1.444 2.621-1.941 6.11-1.941 4.068 0 5.05.431 7.403 3.25 2.566 3.073 3.078 3.25 9.41 3.25h6.696l-.659-2.75c-2.822-11.768-15.075-18.13-29.29-15.207m59.237-.052c-6.023 1.268-9.383 3.263-14.078 8.355-10.482 11.372-9.261 32.903 2.412 42.525 6.777 5.587 18.181 7.69 27.565 5.083 5.096-1.415 11.803-6.734 14.503-11.501 3.462-6.113 3.203-6.453-4.93-6.453-6.69 0-7.429.219-10.379 3.079-5.997 5.812-15.148 4.694-19.459-2.378-1.074-1.76-1.954-3.754-1.956-4.43-.003-.923 5.039-1.297 20.246-1.5l20.25-.271-.086-6c-.047-3.3-.669-7.762-1.382-9.916-1.689-5.102-8.455-12.414-13.611-14.71-4.994-2.224-13.497-3.062-19.095-1.883m70.174-.056c-4.514 1.099-9.19 3.784-10.939 6.282-1.52 2.169-1.561 2.117-1.561-1.994V21h-7-7v28 28h7 7l.006-14.75c.008-21.854 1.492-25.212 11.509-26.043l5.485-.455v-7.876c0-4.332-.337-7.83-.75-7.774s-2.1.431-3.75.833M139.178 41.75c.299 19.238.485 21.055 2.563 24.942 6.405 11.983 24.307 15.188 33.995 6.086L178 70.651v3.175V77h7.5 7.5V49 21h-7.5-7.5l-.006 16.25c-.006 18.074-.845 22.701-4.663 25.705-4.114 3.235-11.424 2.827-15.565-.871l-3.266-2.916-.311-19.084-.31-19.084h-7.512-7.512l.323 20.75m-44.107-6.998c-4.818 2.456-7.271 6.271-7.84 12.192-1.007 10.489 4.55 18.049 13.269 18.049 8.434 0 13.819-6.273 13.828-16.105.007-7.25-2.813-12.065-8.367-14.287-5.073-2.03-6.657-2.008-10.89.151m182.81-.249c-2.189 1.19-5.881 6.776-5.881 8.898 0 .33 5.625.599 12.5.599 13.464 0 13.761-.138 11.415-5.288-2.365-5.191-12.062-7.454-18.034-4.209" fill="#fffcfc" fill-rule="evenodd"/></svg>